<?xml version="1.0" standalone="no"?>
<!DOCTYPE svg PUBLIC "-//W3C//DTD SVG 20010904//EN"
 "http://www.w3.org/TR/2001/REC-SVG-20010904/DTD/svg10.dtd">
<svg version="1.0" xmlns="http://www.w3.org/2000/svg"
 width="251.000000pt" height="63.000000pt" viewBox="0 0 251.000000 63.000000"
 preserveAspectRatio="xMidYMid meet">
<metadata>
Created by potrace 1.13, written by Peter Selinger 2001-2015
</metadata>
<g transform="translate(0.000000,63.000000) scale(0.100000,-0.100000)"
fill="#000000" stroke="none">
<path d="M1735 621 c-8 -15 10 -31 36 -31 18 0 45 27 36 36 -10 10 -39 -5 -32
-16 4 -6 1 -9 -7 -8 -7 2 -16 9 -19 17 -4 12 -7 12 -14 2z"/>
<path d="M1638 583 c7 -3 16 -2 19 1 4 3 -2 6 -13 5 -11 0 -14 -3 -6 -6z"/>
<path d="M1518 573 c7 -3 16 -2 19 1 4 3 -2 6 -13 5 -11 0 -14 -3 -6 -6z"/>
<path d="M1810 566 c0 -7 9 -16 20 -19 11 -3 20 -4 20 -3 0 1 -9 9 -20 19 -15
13 -20 14 -20 3z"/>
<path d="M1450 563 c-14 -3 -29 -9 -35 -14 -12 -12 56 0 70 12 10 9 8 10 -35
2z"/>
<path d="M1675 550 c3 -5 8 -10 11 -10 2 0 4 5 4 10 0 6 -5 10 -11 10 -5 0 -7
-4 -4 -10z"/>
<path d="M2088 553 c7 -3 16 -2 19 1 4 3 -2 6 -13 5 -11 0 -14 -3 -6 -6z"/>
<path d="M2130 550 c8 -5 22 -10 30 -10 13 0 13 1 0 10 -8 5 -22 10 -30 10
-13 0 -13 -1 0 -10z"/>
<path d="M1355 513 c-27 -9 -56 -17 -64 -19 -8 -3 -12 -7 -9 -9 6 -7 121 24
133 36 12 12 2 11 -60 -8z"/>
<path d="M1678 513 c-27 -2 -48 -7 -48 -12 0 -8 188 -6 197 3 3 3 -9 6 -28 6
-19 0 -43 2 -54 4 -11 1 -41 1 -67 -1z"/>
<path d="M2100 516 c0 -2 7 -7 16 -10 8 -3 12 -2 9 4 -6 10 -25 14 -25 6z"/>
<path d="M1580 500 l-25 -8 27 -1 c15 -1 30 4 33 9 7 11 0 11 -35 0z"/>
<path d="M2290 504 c0 -2 16 -11 35 -20 46 -21 95 -78 95 -109 0 -14 -4 -25
-9 -25 -5 0 -11 -9 -14 -20 -10 -38 18 -14 46 40 4 8 5 -2 3 -23 -3 -22 -1
-35 5 -32 5 4 9 20 9 38 0 25 -12 42 -58 87 -32 32 -70 59 -85 62 -15 3 -27 4
-27 2z"/>
<path d="M1528 493 c7 -3 16 -2 19 1 4 3 -2 6 -13 5 -11 0 -14 -3 -6 -6z"/>
<path d="M1848 493 c7 -3 16 -2 19 1 4 3 -2 6 -13 5 -11 0 -14 -3 -6 -6z"/>
<path d="M1815 480 c11 -5 27 -9 35 -9 9 0 8 4 -5 9 -11 5 -27 9 -35 9 -9 0
-8 -4 5 -9z"/>
<path d="M2162 473 c7 -13 16 -23 20 -23 5 0 14 -15 22 -32 9 -20 15 -26 15
-15 1 9 -15 34 -35 55 -19 20 -29 27 -22 15z"/>
<path d="M1365 470 c3 -5 1 -10 -6 -10 -7 0 -10 -3 -6 -6 3 -3 21 -3 39 1 29
7 30 9 13 16 -29 11 -47 11 -40 -1z"/>
<path d="M1917 428 c4 -22 3 -29 -5 -24 -8 5 -10 1 -5 -10 4 -11 2 -15 -4 -11
-6 4 -14 0 -17 -8 -7 -19 -49 -36 -57 -23 -3 5 -19 2 -35 -7 l-29 -15 38 0
c44 0 82 18 115 53 19 20 21 28 13 50 -14 37 -22 34 -14 -5z"/>
<path d="M2046 430 c13 -26 14 -37 4 -58 -11 -25 -10 -26 5 -11 19 19 13 70
-10 89 -11 9 -11 5 1 -20z"/>
<path d="M1135 431 c3 -5 1 -12 -5 -16 -5 -3 -10 -2 -10 4 0 6 -7 8 -16 4 -24
-9 6 -24 34 -16 26 6 28 18 6 27 -8 3 -12 2 -9 -3z"/>
<path d="M1176 431 c-4 -5 3 -7 14 -4 23 6 26 13 6 13 -8 0 -17 -4 -20 -9z"/>
<path d="M2080 422 c6 -13 9 -30 6 -38 -3 -8 -2 -13 3 -9 5 3 12 -1 15 -7 3
-7 3 1 -1 17 -3 17 -12 37 -20 45 -14 13 -14 12 -3 -8z"/>
<path d="M1742 418 c-6 -6 -12 -8 -12 -3 0 5 -7 -1 -16 -13 -9 -13 -14 -26
-10 -29 3 -3 -1 -12 -9 -20 -8 -8 -15 -20 -15 -26 0 -8 3 -8 8 1 5 7 15 11 23
9 8 -2 11 -2 7 0 -5 3 -8 9 -8 14 0 6 4 8 9 5 4 -3 6 7 4 22 -3 25 -3 26 6 5
6 -13 16 -23 23 -23 10 0 10 2 -1 9 -19 12 -3 34 20 28 10 -3 17 0 16 6 -1 6
10 12 26 13 15 2 27 -1 27 -7 0 -5 -4 -9 -10 -9 -5 0 -10 -4 -10 -9 0 -5 9 -7
20 -4 13 3 20 12 18 22 -4 20 -97 28 -116 9z"/>
<path d="M1960 390 c-9 -6 -10 -10 -3 -10 6 0 15 5 18 10 8 12 4 12 -15 0z"/>
<path d="M2011 371 c-8 -5 -10 -14 -6 -21 6 -9 10 -8 17 4 12 21 7 28 -11 17z"/>
<path d="M2267 361 c-4 -17 -3 -21 5 -13 5 5 8 16 6 23 -3 8 -7 3 -11 -10z"/>
<path d="M2357 359 c4 -13 8 -18 11 -10 2 7 -1 18 -6 23 -8 8 -9 4 -5 -13z"/>
<path d="M975 360 c-3 -6 1 -7 9 -4 18 7 21 14 7 14 -6 0 -13 -4 -16 -10z"/>
<path d="M1633 345 c7 -13 14 -20 15 -14 5 14 -6 39 -17 39 -5 0 -4 -11 2 -25z"/>
<path d="M1946 355 c4 -9 15 -20 25 -25 24 -13 39 -12 17 1 -10 5 -18 17 -18
24 0 8 -7 15 -15 15 -9 0 -12 -6 -9 -15z"/>
<path d="M2310 355 c0 -8 2 -15 4 -15 2 0 6 7 10 15 3 8 1 15 -4 15 -6 0 -10
-7 -10 -15z"/>
<path d="M1611 343 c7 -12 15 -20 18 -17 3 2 -3 12 -13 22 -17 16 -18 16 -5
-5z"/>
<path d="M2124 352 c2 -4 -2 -18 -11 -32 -8 -14 -12 -17 -9 -8 4 15 2 16 -20
6 -13 -6 -23 -18 -22 -26 2 -8 -8 -21 -22 -29 -23 -14 -24 -14 -6 1 11 9 17
18 14 21 -8 9 -50 -10 -46 -20 2 -6 -10 -10 -26 -11 -18 -1 -37 -10 -49 -25
l-20 -24 7 30 c6 27 5 28 -7 13 -17 -22 -27 -23 -27 -3 0 8 -4 15 -10 15 -5 0
-7 -7 -4 -15 4 -8 2 -15 -4 -15 -6 0 -13 6 -15 13 -3 7 -6 5 -6 -5 -1 -10 -7
-19 -13 -20 -7 0 10 -4 37 -7 31 -4 56 -2 65 5 30 22 44 28 35 14 -6 -10 -4
-12 11 -6 30 12 64 14 64 4 0 -5 4 -7 9 -4 5 4 12 0 14 -6 4 -10 6 -10 6 0 1
7 5 11 11 7 5 -3 7 -13 4 -23 -5 -14 -4 -15 5 -2 6 8 11 26 11 39 0 16 4 21
15 17 8 -3 15 -1 15 3 0 5 -7 12 -16 15 -22 8 -26 8 -19 -4 3 -5 -1 -10 -9
-10 -9 0 -14 8 -13 20 1 12 8 20 17 19 37 -3 51 2 48 17 -2 10 2 19 9 21 7 3
9 -3 6 -16 -4 -15 -1 -21 11 -21 9 0 16 5 16 12 0 6 3 9 6 5 9 -9 -19 -68 -31
-64 -12 4 -28 -10 -43 -40 -9 -17 -8 -23 4 -34 10 -8 11 -16 5 -22 -5 -5 -7
-23 -4 -40 4 -21 3 -28 -5 -23 -6 4 -9 14 -6 24 5 14 4 15 -5 2 -5 -8 -13 -11
-17 -7 -4 4 -2 13 4 19 24 24 11 31 -13 8 -14 -13 -25 -18 -25 -12 0 6 5 14
10 17 6 3 10 11 10 17 0 7 -6 6 -15 -2 -11 -9 -15 -9 -15 -1 0 7 -5 9 -12 5
-10 -6 -10 -4 0 8 11 14 10 16 -7 11 -13 -3 -21 -1 -21 6 0 7 4 9 10 6 5 -3
18 -1 27 4 18 10 12 14 -22 14 -33 0 -35 -3 -24 -30 8 -21 7 -28 -6 -35 -8 -5
-15 -14 -15 -21 0 -9 2 -9 8 0 11 17 54 21 59 5 3 -8 -1 -12 -8 -11 -8 2 -24
-2 -37 -9 -25 -14 -42 -9 -42 13 0 22 -43 14 -57 -10 -10 -17 -12 -17 -13 -3
0 9 4 19 10 23 5 3 7 12 4 19 -3 8 -1 17 5 21 6 3 9 0 5 -8 -3 -8 -1 -18 5
-22 7 -3 11 2 11 14 0 28 -16 35 -42 17 -14 -10 -17 -16 -8 -16 10 0 8 -5 -6
-16 -10 -8 -13 -13 -7 -9 9 4 11 1 7 -9 -3 -9 -10 -13 -15 -10 -5 3 -9 1 -9
-5 0 -5 7 -14 16 -19 9 -5 15 -12 15 -15 -3 -23 0 -37 10 -37 5 0 8 4 5 9 -3
5 1 11 9 15 8 3 15 15 15 26 0 11 4 20 9 20 4 0 8 -13 7 -29 -1 -21 -5 -27
-16 -23 -8 3 -4 -4 10 -16 l25 -21 -53 -1 c-36 0 -51 4 -50 13 2 6 7 15 11 18
11 8 -3 40 -14 33 -5 -3 -9 0 -9 5 0 6 -7 11 -15 11 -8 0 -15 7 -15 16 0 11
-6 13 -19 9 -13 -4 -23 0 -30 12 -6 11 -11 13 -11 5 0 -9 -7 -11 -21 -7 -16 5
-20 4 -15 -6 4 -8 0 -5 -8 5 -14 18 -21 15 -17 -7 1 -5 -2 -6 -7 -3 -5 3 -22
11 -38 17 l-29 12 25 8 c20 6 18 7 -12 5 -37 -3 -67 -16 -36 -16 9 0 18 -6 21
-13 4 -10 -2 -13 -19 -9 -17 3 -30 -3 -44 -19 -20 -25 -27 -44 -11 -35 5 3 11
-1 14 -9 4 -9 1 -12 -9 -8 -10 4 -12 0 -8 -10 4 -12 1 -15 -15 -12 -12 2 -21
0 -21 -6 0 -5 -4 -9 -10 -9 -5 0 -10 7 -10 16 0 9 -5 12 -12 8 -7 -4 -5 2 5
13 16 18 16 21 2 27 -10 3 -14 2 -9 -5 4 -6 -1 -9 -12 -8 -11 2 -25 0 -32 -5
-11 -6 -10 -12 4 -27 16 -18 16 -19 -2 -19 -15 0 -20 7 -19 24 0 13 3 28 8 32
15 15 6 24 -12 12 -13 -8 -18 -20 -16 -42 2 -17 1 -23 -2 -13 -3 11 -11 16
-19 13 -8 -3 -14 -1 -14 4 0 18 -19 10 -25 -11 -6 -17 -9 -18 -22 -7 -13 11
-17 11 -21 0 -3 -10 -7 -10 -20 0 -12 10 -16 10 -19 1 -10 -28 -21 -11 -13 19
7 21 6 36 -1 45 -7 8 -8 13 -1 13 5 0 12 9 15 21 4 15 2 19 -9 15 -8 -3 -14 1
-14 9 0 8 -5 15 -11 15 -5 0 -7 -4 -4 -10 3 -5 -1 -10 -9 -10 -9 0 -16 -6 -16
-13 0 -8 -12 -20 -26 -27 -18 -10 -24 -20 -20 -35 5 -19 4 -19 -8 -2 -13 16
-14 16 -20 1 -4 -10 -1 -21 5 -25 17 -10 60 20 57 40 -2 9 2 15 9 14 6 -2 15
6 18 17 4 11 11 20 16 20 13 0 11 -7 -8 -37 -16 -23 -16 -26 -2 -21 10 4 16 0
16 -10 2 -34 -6 -43 -26 -32 -15 7 -23 6 -35 -5 -18 -18 -33 -19 -39 -2 -3 9
-9 9 -26 0 -11 -7 -40 -13 -63 -12 -30 0 -37 3 -24 8 17 6 17 8 4 14 -10 3
-19 0 -22 -9 -4 -12 -82 -14 -493 -17 -268 -1 78 -3 770 -5 884 -1 1257 1
1257 9 0 6 -5 19 -10 30 -8 13 -7 19 0 19 6 0 9 23 8 60 -3 51 -5 58 -15 43
-15 -20 -17 -47 -3 -38 12 8 13 9 -5 -45 l-14 -45 3 60 c2 33 11 80 20 104 9
24 16 55 15 70 -1 20 -5 14 -16 -22 -10 -32 -19 -47 -28 -43 -10 3 -12 -4 -8
-27 4 -30 4 -31 -10 -12 -8 10 -12 25 -9 33 4 11 -1 13 -19 7 -20 -6 -22 -5
-11 6 24 26 8 31 -45 14 -27 -9 -29 -18 -6 -36 11 -10 14 -10 9 -1 -4 7 -2 12
4 12 6 0 8 5 5 10 -12 20 6 10 30 -16 29 -31 30 -35 10 -28 -11 5 -14 0 -13
-19 1 -14 6 -23 10 -21 5 3 6 9 3 14 -3 4 5 5 17 2 19 -5 20 -7 6 -10 -19 -4
-25 -22 -7 -22 5 0 7 -5 4 -10 -5 -8 -11 -7 -21 1 -19 16 -19 -3 2 -47 19 -39
15 -47 -18 -42 l-23 5 24 10 c18 7 21 12 11 18 -9 5 -20 0 -32 -15 -10 -12
-18 -17 -18 -11 0 6 -8 11 -17 11 -12 0 -14 3 -7 8 7 4 12 19 12 35 0 25 -2
26 -14 10 -11 -14 -13 -14 -9 -2 4 10 -2 19 -16 25 l-22 10 27 28 c26 29 33
42 17 32 -4 -3 -7 11 -6 32 2 20 1 31 -2 25 -3 -7 -16 -13 -29 -13 -13 0 -24
-4 -24 -9 0 -5 -9 -11 -21 -14 -17 -5 -18 -3 -7 11 7 9 8 13 2 9 -7 -4 -14 0
-18 8 -7 19 -26 19 -26 0 0 -8 -6 -15 -14 -15 -8 0 -16 -5 -18 -12 -3 -8 -9
-8 -24 0 -18 10 -17 12 14 23 24 8 31 16 27 28 -3 10 3 25 15 36 19 17 19 18
-15 35 -47 24 -67 31 -61 22z m32 -167 c6 -14 8 -13 20 2 12 17 14 17 26 1 7
-9 24 -18 38 -20 21 -2 25 -8 22 -30 -2 -16 2 -28 9 -28 6 0 9 -7 5 -15 -3 -8
-1 -16 4 -16 6 -1 14 -2 19 -3 15 -2 25 -16 12 -16 -7 0 -22 -10 -32 -23 l-20
-22 11 25 11 25 -20 -24 c-12 -13 -21 -18 -21 -13 0 6 5 14 10 17 6 3 10 11
10 16 0 6 -4 7 -10 4 -13 -8 -13 8 0 21 6 6 4 10 -8 11 -15 1 -18 -5 -16 -38
2 -33 0 -38 -12 -28 -9 7 -14 8 -14 1 0 -14 -42 -11 -57 4 -7 7 -10 21 -6 31
6 17 5 17 -15 -1 -22 -19 -22 -19 -22 3 0 12 -4 20 -9 16 -5 -3 -12 -1 -15 4
-7 10 20 9 30 -2 15 -14 24 -6 24 21 0 20 7 32 23 40 17 8 18 11 5 11 -10 1
-18 3 -18 5 0 2 -3 11 -6 20 -3 9 -1 16 5 16 7 0 14 -7 17 -15z m139 5 c-11
-5 -14 -9 -7 -9 14 -1 17 -31 2 -31 -5 0 -10 7 -10 15 0 7 -7 18 -16 23 -12 7
-8 9 18 9 26 1 29 -1 13 -7z m-668 -95 c-10 -20 -13 -21 -18 -7 -3 9 -1 22 5
28 18 19 25 6 13 -21z m118 15 c3 -5 17 -10 31 -10 21 0 29 -10 25 -33 -1 -4
11 -4 26 -1 l28 7 -23 -25 c-21 -23 -30 -25 -112 -26 -82 0 -90 1 -90 18 0 23
45 74 59 66 5 -4 12 -2 16 4 8 13 32 13 40 0z m310 -9 c-3 -5 2 -16 10 -24 21
-22 19 -29 -5 -15 -21 13 -28 48 -9 48 5 0 8 -4 4 -9z m-465 -11 c0 -5 -10
-10 -22 -10 -19 0 -20 2 -8 10 19 13 30 13 30 0z m60 6 c0 -3 -4 -8 -10 -11
-5 -3 -10 -1 -10 4 0 6 5 11 10 11 6 0 10 -2 10 -4z m370 0 c0 -3 -4 -8 -10
-11 -5 -3 -10 -1 -10 4 0 6 5 11 10 11 6 0 10 -2 10 -4z m432 -21 c-3 -18 1
-30 14 -40 18 -14 18 -14 -3 -15 -20 0 -23 5 -23 40 0 22 4 40 9 40 4 0 6 -11
3 -25z m-1302 11 c0 -3 -4 -8 -10 -11 -5 -3 -10 -1 -10 4 0 6 5 11 10 11 6 0
10 -2 10 -4z m832 -35 c-3 -22 -8 -28 -20 -23 -10 4 -12 7 -4 10 7 2 12 12 12
23 0 10 4 19 8 19 5 0 7 -13 4 -29z m-405 1 c-10 -10 -14 -22 -10 -25 3 -4 -1
-7 -10 -7 -9 0 -17 2 -17 5 0 9 35 45 44 45 5 0 2 -8 -7 -18z m472 -5 c6 -8 8
-17 4 -20 -11 -12 -23 -7 -23 9 0 8 -4 12 -10 9 -5 -3 -10 -1 -10 4 0 15 25
14 39 -2z m51 -17 c0 -5 -7 -10 -16 -10 -8 0 -12 5 -9 10 3 6 10 10 16 10 5 0
9 -4 9 -10z m210 0 c0 -5 -5 -10 -11 -10 -5 0 -7 5 -4 10 3 6 8 10 11 10 2 0
4 -4 4 -10z"/>
<path d="M2203 152 c-13 -2 -23 -7 -23 -12 0 -4 -9 -10 -21 -13 -28 -7 -21
-42 9 -43 27 -2 28 4 5 23 -16 12 -13 13 28 10 41 -3 46 -1 41 15 -5 22 -11
25 -39 20z"/>
<path d="M1727 93 c-2 -5 2 -21 9 -38 7 -16 13 -24 14 -16 0 7 6 11 14 8 10
-4 13 -1 9 8 -3 8 -9 12 -14 9 -5 -3 -9 4 -9 15 0 20 -15 29 -23 14z"/>
<path d="M1673 74 c-8 -4 -6 -11 8 -25 23 -23 54 -26 45 -3 -3 9 -6 20 -6 25
0 9 -26 11 -47 3z"/>
<path d="M1494 329 c-3 -6 -1 -16 5 -22 8 -8 11 -5 11 11 0 24 -5 28 -16 11z"/>
<path d="M1570 330 c0 -5 5 -10 11 -10 5 0 7 5 4 10 -3 6 -8 10 -11 10 -2 0
-4 -4 -4 -10z"/>
<path d="M1388 323 c7 -3 16 -2 19 1 4 3 -2 6 -13 5 -11 0 -14 -3 -6 -6z"/>
<path d="M1906 304 c-9 -23 0 -30 19 -14 13 11 14 10 8 -6 -6 -17 -5 -17 10
-5 15 12 19 12 32 -5 13 -17 13 -17 6 11 -6 24 -13 31 -38 33 -21 2 -32 -2
-37 -14z"/>
<path d="M2275 310 c3 -5 11 -10 16 -10 6 0 7 5 4 10 -3 6 -11 10 -16 10 -6 0
-7 -4 -4 -10z"/>
<path d="M2360 311 c0 -5 5 -13 10 -16 6 -3 10 -2 10 4 0 5 -4 13 -10 16 -5 3
-10 2 -10 -4z"/>
<path d="M1725 300 c-3 -6 1 -7 9 -4 18 7 21 14 7 14 -6 0 -13 -4 -16 -10z"/>
<path d="M1188 293 c7 -3 16 -2 19 1 4 3 -2 6 -13 5 -11 0 -14 -3 -6 -6z"/>
<path d="M1790 291 c0 -5 -11 -8 -25 -6 -14 1 -25 -2 -25 -6 0 -5 16 -9 35 -9
26 0 33 3 29 15 -7 17 -14 20 -14 6z"/>
<path d="M1821 284 c0 -11 3 -14 6 -6 3 7 2 16 -1 19 -3 4 -6 -2 -5 -13z"/>
<path d="M1857 293 c-10 -9 -9 -23 1 -23 5 0 9 7 9 15 0 17 -1 18 -10 8z"/>
<path d="M1306 283 c-4 -5 -12 -9 -17 -9 -5 -1 -13 -2 -19 -3 -5 0 -10 -6 -10
-13 0 -9 3 -9 11 -1 6 6 17 9 24 7 7 -3 16 0 20 6 8 14 1 23 -9 13z"/>
<path d="M1564 278 c-3 -4 4 -8 15 -8 11 0 22 -8 24 -17 3 -11 4 -7 4 7 -1 18
-7 26 -20 26 -10 0 -21 -4 -23 -8z"/>
<path d="M2300 280 c0 -5 7 -10 16 -10 8 0 12 5 9 10 -3 6 -10 10 -16 10 -5 0
-9 -4 -9 -10z"/>
<path d="M1455 257 c-22 -11 -35 -22 -29 -24 17 -6 85 27 79 37 -3 6 -7 10 -8
9 -1 -1 -20 -10 -42 -22z"/>
<path d="M2275 259 c-4 -6 -14 -8 -24 -4 -13 5 -14 4 -3 -6 10 -11 15 -10 29
4 10 9 14 17 11 17 -4 0 -10 -5 -13 -11z"/>
<path d="M1210 250 c-8 -5 -12 -11 -9 -14 2 -3 11 -1 19 4 8 5 12 11 9 14 -2
3 -11 1 -19 -4z"/>
<path d="M1165 240 c-3 -5 -1 -10 4 -10 6 0 11 5 11 10 0 6 -2 10 -4 10 -3 0
-8 -4 -11 -10z"/>
<path d="M1333 237 c3 -10 3 -17 -2 -17 -4 0 -8 -7 -8 -16 0 -14 2 -14 14 2
16 22 16 31 1 40 -8 5 -9 2 -5 -9z"/>
<path d="M1740 239 c0 -6 -7 -9 -15 -6 -8 4 -17 1 -21 -5 -5 -7 2 -9 20 -6 19
4 31 0 40 -14 9 -12 16 -16 21 -9 3 6 1 11 -5 11 -6 0 -9 4 -6 8 2 4 -4 13
-15 20 -13 9 -19 9 -19 1z"/>
<path d="M1065 229 c-4 -6 -5 -12 -2 -15 2 -3 7 2 10 11 7 17 1 20 -8 4z"/>
<path d="M1468 233 c-10 -2 -18 -9 -18 -14 0 -6 -4 -8 -9 -4 -5 3 -22 -10 -37
-30 -14 -19 -33 -35 -40 -35 -8 0 -14 -7 -14 -15 0 -9 -14 -17 -40 -21 -22 -4
-45 -13 -51 -20 -15 -18 -14 -18 51 6 63 23 63 23 55 10 -3 -5 17 2 44 16 47
23 81 51 46 38 -11 -5 -14 -2 -9 10 4 11 13 14 24 11 10 -3 21 -1 25 4 3 6 0
8 -8 5 -8 -3 -18 0 -22 6 -3 6 -2 9 3 8 6 -2 10 1 10 6 0 5 6 13 14 17 14 9 5
10 -24 2z m-38 -75 c0 -6 -3 -8 -6 -5 -4 3 -16 2 -28 -4 -20 -10 -20 -10 -2 5
24 19 36 20 36 4z"/>
<path d="M1255 221 c-3 -5 -1 -12 5 -16 5 -3 10 1 10 9 0 18 -6 21 -15 7z"/>
<path d="M1577 210 c-4 -16 -2 -18 13 -10 9 5 20 6 24 3 3 -3 6 -3 6 0 0 3 -9
11 -19 16 -15 9 -20 7 -24 -9z"/>
<path d="M1800 202 c0 -26 -3 -30 -17 -25 -10 3 -24 13 -31 22 -11 13 -14 14
-21 2 -6 -8 -14 -10 -22 -5 -21 13 -44 12 -57 -3 -7 -7 -9 -13 -5 -13 4 -1 27
-4 50 -9 33 -6 40 -5 36 6 -8 20 11 16 27 -6 10 -15 18 -17 31 -10 10 5 25 6
33 3 9 -3 16 -1 16 5 0 6 -5 10 -11 8 -6 -1 -13 9 -15 22 -7 37 -14 38 -14 3z"/>
<path d="M1080 205 c-7 -9 -8 -15 -2 -15 5 0 12 7 16 15 3 8 4 15 2 15 -2 0
-9 -7 -16 -15z"/>
<path d="M1160 206 c0 -10 -7 -12 -22 -8 -14 3 -19 2 -14 -6 10 -17 46 -15 46
2 0 8 6 17 13 19 7 3 5 6 -5 6 -10 1 -18 -5 -18 -13z"/>
<path d="M1944 211 c4 -5 1 -11 -6 -13 -7 -3 -3 -7 8 -10 17 -4 20 -2 17 13
-3 11 -10 19 -15 19 -5 0 -7 -4 -4 -9z"/>
<path d="M1190 200 c-8 -5 -12 -11 -10 -14 3 -2 14 2 24 10 22 15 10 19 -14 4z"/>
<path d="M1103 188 c11 -32 -44 -66 -56 -35 -3 6 -6 2 -6 -10 -1 -17 4 -21 25
-18 14 1 33 11 43 22 17 17 17 21 3 39 -12 15 -14 16 -9 2z"/>
<path d="M1335 180 c-3 -6 1 -7 9 -4 18 7 21 14 7 14 -6 0 -13 -4 -16 -10z"/>
<path d="M900 158 c-12 -22 -12 -22 6 -6 10 10 15 20 12 24 -4 3 -12 -5 -18
-18z"/>
<path d="M1300 172 c0 -8 -6 -12 -12 -10 -7 3 -19 -2 -27 -10 -12 -12 -12 -15
0 -23 19 -12 29 -11 29 1 0 6 7 10 15 10 17 0 19 9 5 30 -7 11 -10 12 -10 2z"/>
<path d="M1941 164 c0 -11 3 -14 6 -6 3 7 2 16 -1 19 -3 4 -6 -2 -5 -13z"/>
<path d="M2365 170 c-3 -6 1 -7 9 -4 18 7 21 14 7 14 -6 0 -13 -4 -16 -10z"/>
<path d="M1477 149 l-27 -20 25 -27 c16 -17 21 -30 15 -36 -14 -14 -12 -23 5
-23 10 0 14 10 12 32 -1 19 -7 31 -13 28 -6 -2 -14 5 -17 16 -4 18 0 21 24 21
21 0 29 -5 29 -17 0 -15 2 -16 10 -3 14 21 12 30 -5 30 -8 0 -15 5 -15 10 0
16 -15 12 -43 -11z"/>
<path d="M1796 151 c-3 -5 1 -14 9 -21 13 -10 15 -9 15 9 0 21 -14 28 -24 12z"/>
<path d="M2333 153 c-7 -2 -13 -10 -13 -15 0 -6 3 -8 7 -5 3 4 12 2 20 -4 9
-9 13 -8 13 0 0 6 -5 11 -11 11 -5 0 -7 5 -4 10 7 11 6 11 -12 3z"/>
<path d="M865 90 c-4 -17 -5 -34 -2 -36 2 -3 7 10 11 27 3 18 4 34 2 36 -2 3
-7 -10 -11 -27z"/>
<path d="M967 109 c7 -7 15 -10 18 -7 3 3 -2 9 -12 12 -14 6 -15 5 -6 -5z"/>
<path d="M2366 95 c-4 -10 1 -15 14 -15 13 0 18 5 14 15 -4 8 -10 15 -14 15
-4 0 -10 -7 -14 -15z"/>
<path d="M1333 93 c-7 -2 -13 -10 -13 -15 0 -6 3 -8 7 -5 3 4 12 2 19 -4 9 -8
11 -5 7 10 -3 12 -6 21 -7 20 0 0 -7 -3 -13 -6z"/>
<path d="M1006 72 c-2 -4 4 -8 15 -8 10 0 19 4 19 8 0 4 -6 8 -14 8 -8 0 -17
-4 -20 -8z"/>
<path d="M1058 63 c7 -3 16 -2 19 1 4 3 -2 6 -13 5 -11 0 -14 -3 -6 -6z"/>
<path d="M1180 60 c0 -5 5 -10 10 -10 6 0 10 5 10 10 0 6 -4 10 -10 10 -5 0
-10 -4 -10 -10z"/>
<path d="M1257 63 c-10 -9 -9 -23 1 -23 5 0 17 7 28 15 19 14 19 14 -2 15 -11
0 -24 -3 -27 -7z"/>
<path d="M925 40 c3 -5 8 -10 11 -10 2 0 4 5 4 10 0 6 -5 10 -11 10 -5 0 -7
-4 -4 -10z"/>
<path d="M1050 40 c-9 -6 -10 -10 -3 -10 6 0 15 5 18 10 8 12 4 12 -15 0z"/>
</g>
</svg>
